<svg xmlns="http://www.w3.org/2000/svg" xmlns:xlink="http://www.w3.org/1999/xlink" width="500" zoomAndPan="magnify" viewBox="0 0 375 374.999991" height="500" preserveAspectRatio="xMidYMid meet" version="1.0"><defs><g/><clipPath id="5992d70b25"><path d="M 113.054688 49.085938 L 215.269531 49.085938 L 215.269531 232.023438 L 113.054688 232.023438 Z M 113.054688 49.085938 " clip-rule="nonzero"/></clipPath></defs><g fill="#030d4e" fill-opacity="1"><g transform="translate(126.123998, 265.555283)"><g><path d="M 11.59375 0.269531 C 15.625 0.269531 19.152344 -2.035156 20.878906 -5.421875 L 16.40625 -7.695312 C 15.523438 -5.933594 13.761719 -4.8125 11.59375 -4.8125 C 8.507812 -4.8125 6.203125 -7.085938 6.203125 -10.167969 C 6.203125 -13.253906 8.507812 -15.523438 11.59375 -15.523438 C 13.761719 -15.523438 15.523438 -14.40625 16.40625 -12.644531 L 20.878906 -14.914062 C 19.152344 -18.304688 15.625 -20.609375 11.59375 -20.609375 C 5.796875 -20.609375 1.152344 -15.933594 1.152344 -10.167969 C 1.152344 -4.40625 5.796875 0.269531 11.59375 0.269531 Z M 11.59375 0.269531 "/></g></g></g><g fill="#030d4e" fill-opacity="1"><g transform="translate(152.045112, 265.555283)"><g><path d="M 14.339844 0 L 19.898438 0 L 12.542969 -20.339844 L 6.746094 -20.339844 L -0.609375 0 L 4.984375 0 L 6.101562 -3.558594 L 13.21875 -3.558594 Z M 7.421875 -7.761719 L 9.660156 -14.949219 L 11.933594 -7.761719 Z M 7.421875 -7.761719 "/></g></g></g><g fill="#030d4e" fill-opacity="1"><g transform="translate(175.593924, 265.555283)"><g><path d="M 13.1875 -8.066406 C 15.523438 -8.882812 17.152344 -11.152344 17.152344 -13.933594 C 17.152344 -17.457031 14.542969 -20.339844 10.914062 -20.339844 L 1.863281 -20.339844 L 1.863281 0 L 7.050781 0 L 7.050781 -7.457031 L 8.238281 -7.457031 L 12.984375 0 L 18.8125 0 Z M 10.066406 -11.625 L 7.050781 -11.625 L 7.050781 -15.832031 L 10.066406 -15.832031 C 11.289062 -15.832031 12.167969 -14.949219 12.167969 -13.726562 C 12.167969 -12.507812 11.289062 -11.625 10.066406 -11.625 Z M 10.066406 -11.625 "/></g></g></g><g fill="#030d4e" fill-opacity="1"><g transform="translate(198.329369, 265.555283)"><g><path d="M 11.558594 -11.289062 L 11.558594 -7.320312 L 16.203125 -7.320312 C 15.253906 -5.796875 13.59375 -4.8125 11.59375 -4.8125 C 8.507812 -4.8125 6.203125 -7.085938 6.203125 -10.167969 C 6.203125 -13.253906 8.507812 -15.523438 11.59375 -15.523438 C 13.761719 -15.523438 15.523438 -14.40625 16.40625 -12.644531 L 20.878906 -14.914062 C 19.152344 -18.304688 15.625 -20.609375 11.59375 -20.609375 C 5.796875 -20.609375 1.152344 -15.933594 1.152344 -10.167969 C 1.152344 -4.40625 5.796875 0.269531 11.59375 0.269531 C 17.355469 0.269531 22.035156 -4.40625 22.035156 -10.167969 L 22.035156 -11.289062 Z M 11.558594 -11.289062 "/></g></g></g><g fill="#030d4e" fill-opacity="1"><g transform="translate(225.707751, 265.555283)"><g><path d="M 11.59375 0.269531 C 17.355469 0.269531 22.035156 -4.40625 22.035156 -10.167969 C 22.035156 -15.933594 17.355469 -20.609375 11.59375 -20.609375 C 5.796875 -20.609375 1.152344 -15.933594 1.152344 -10.167969 C 1.152344 -4.40625 5.796875 0.269531 11.59375 0.269531 Z M 11.59375 -4.8125 C 8.507812 -4.8125 6.203125 -7.085938 6.203125 -10.167969 C 6.203125 -13.253906 8.507812 -15.523438 11.59375 -15.523438 C 14.644531 -15.523438 16.949219 -13.253906 16.949219 -10.167969 C 16.949219 -7.085938 14.644531 -4.8125 11.59375 -4.8125 Z M 11.59375 -4.8125 "/></g></g></g><g fill="#030d4e" fill-opacity="1"><g transform="translate(142.429318, 288.930826)"><g><path d="M 12.921875 -13.320312 L 8.679688 -4.109375 L 4.484375 -13.320312 L 1.308594 -13.320312 L 1.308594 0 L 4.242188 0 L 4.242188 -7.949219 L 7.835938 0 L 9.523438 0 L 13.144531 -7.925781 L 13.144531 0 L 16.074219 0 L 16.074219 -13.320312 Z M 12.921875 -13.320312 "/></g></g></g><g fill="#030d4e" fill-opacity="1"><g transform="translate(174.020664, 288.930826)"><g><path d="M 9.4375 -10.746094 L 9.4375 -13.320312 L 1.421875 -13.320312 L 1.421875 0 L 9.4375 0 L 9.4375 -2.574219 L 4.351562 -2.574219 L 4.351562 -5.375 L 8.703125 -5.375 L 8.703125 -7.949219 L 4.351562 -7.949219 L 4.351562 -10.746094 Z M 9.4375 -10.746094 "/></g></g></g><g fill="#030d4e" fill-opacity="1"><g transform="translate(198.57671, 288.930826)"><g><path d="M 9.4375 -10.746094 L 9.4375 -13.320312 L 1.421875 -13.320312 L 1.421875 0 L 9.4375 0 L 9.4375 -2.574219 L 4.351562 -2.574219 L 4.351562 -5.375 L 8.703125 -5.375 L 8.703125 -7.949219 L 4.351562 -7.949219 L 4.351562 -10.746094 Z M 9.4375 -10.746094 "/></g></g></g><g fill="#030d4e" fill-opacity="1"><g transform="translate(223.132757, 288.930826)"><g><path d="M 9.523438 -13.320312 L -0.109375 -13.320312 L -0.109375 -10.722656 L 3.265625 -10.722656 L 3.265625 0 L 6.171875 0 L 6.171875 -10.722656 L 9.523438 -10.722656 Z M 9.523438 -13.320312 "/></g></g></g><g clip-path="url(#5992d70b25)"><path fill="#00bf63" d="M 170.132812 200.800781 C 156.289062 183.863281 148.664062 162.46875 148.664062 140.550781 C 148.664062 140.339844 148.664062 140.121094 148.667969 139.910156 C 148.804688 118.144531 156.492188 96.886719 170.3125 80.082031 C 182.050781 65.8125 197.761719 55.238281 215.214844 49.710938 C 211.675781 49.296875 208.101562 49.085938 204.515625 49.085938 C 204.09375 49.085938 203.667969 49.085938 203.246094 49.09375 C 178.871094 49.425781 156.046875 59.296875 138.96875 76.890625 C 121.875 94.503906 112.675781 117.644531 113.070312 142.058594 C 113.871094 191.664062 154.898438 232.023438 204.523438 232.023438 C 208.105469 232.023438 211.679688 231.808594 215.21875 231.394531 C 197.671875 225.839844 181.894531 215.183594 170.132812 200.800781 " fill-opacity="1" fill-rule="nonzero"/></g><path fill="#5e17eb" d="M 243.480469 184.554688 L 243.113281 184.558594 C 240.304688 184.667969 237.867188 185.441406 235.652344 186.933594 C 233.804688 188.171875 231.875 189.308594 229.914062 190.308594 C 222.117188 194.300781 213.34375 196.40625 204.515625 196.40625 C 204.390625 196.40625 204.265625 196.40625 204.140625 196.40625 C 189.253906 196.300781 175.261719 190.347656 164.742188 179.640625 C 162.074219 176.925781 159.714844 173.988281 157.683594 170.875 C 168.039062 200.042969 192.878906 223.011719 224.21875 229.890625 C 233.796875 227.792969 242.933594 224.171875 251.386719 219.117188 C 251.421875 219.09375 251.457031 219.070312 251.496094 219.046875 L 252.972656 218.144531 C 253.101562 218.070312 253.234375 218.007812 253.367188 217.964844 C 258.457031 214.617188 261.546875 208.957031 261.546875 202.765625 C 261.546875 192.726562 253.441406 184.554688 243.480469 184.554688 " fill-opacity="1" fill-rule="nonzero"/><path fill="#5e17eb" d="M 165.238281 100.855469 C 175.765625 90.4375 189.714844 84.699219 204.523438 84.699219 C 213.40625 84.699219 222.242188 86.839844 230.085938 90.886719 C 231.855469 91.792969 233.601562 92.816406 235.273438 93.921875 C 237.964844 95.699219 240.996094 96.578125 244.042969 96.460938 C 244.257812 96.453125 244.46875 96.441406 244.679688 96.425781 C 253.765625 95.769531 261 88.414062 261.511719 79.324219 C 261.941406 71.714844 258.5625 66.113281 250.886719 61.695312 C 242.585938 56.796875 233.621094 53.277344 224.21875 51.214844 C 193.050781 58.054688 168.242188 80.910156 157.804688 109.921875 C 159.9375 106.683594 162.421875 103.644531 165.238281 100.855469 " fill-opacity="1" fill-rule="nonzero"/></svg>